<svg xmlns="http://www.w3.org/2000/svg" xmlns:xlink="http://www.w3.org/1999/xlink" width="500" zoomAndPan="magnify" viewBox="0 0 375 374.999991" height="500" preserveAspectRatio="xMidYMid meet" version="1.0"><defs><g/><clipPath id="e7663296e5"><path d="M 96 95 L 158 95 L 158 157 L 96 157 Z M 96 95 " clip-rule="nonzero"/></clipPath><clipPath id="a7e29250e5"><path d="M 96.046875 125.953125 L 126.53125 95.46875 L 157.019531 125.953125 L 126.53125 156.441406 Z M 96.046875 125.953125 " clip-rule="nonzero"/></clipPath><clipPath id="4bda8477ae"><path d="M 126 125 L 188 125 L 188 187 L 126 187 Z M 126 125 " clip-rule="nonzero"/></clipPath><clipPath id="eb269e7eae"><path d="M 126.53125 156.441406 L 157.019531 125.953125 L 187.503906 156.441406 L 157.019531 186.925781 Z M 126.53125 156.441406 " clip-rule="nonzero"/></clipPath><clipPath id="d50ab7024a"><path d="M 187 125 L 249 125 L 249 187 L 187 187 Z M 187 125 " clip-rule="nonzero"/></clipPath><clipPath id="5bbedf24c4"><path d="M 187.503906 156.441406 L 217.992188 125.953125 L 248.476562 156.441406 L 217.992188 186.925781 Z M 187.503906 156.441406 " clip-rule="nonzero"/></clipPath><clipPath id="d0638d245b"><path d="M 157.011719 156.453125 L 217.988281 156.453125 L 217.988281 186.9375 L 157.011719 186.9375 Z M 157.011719 156.453125 " clip-rule="nonzero"/></clipPath><clipPath id="08f25c42d7"><path d="M 187.5 156.453125 L 217.988281 186.9375 L 157.011719 186.9375 Z M 187.5 156.453125 " clip-rule="nonzero"/></clipPath><clipPath id="abeac25d0d"><path d="M 157 95 L 218 95 L 218 157 L 157 157 Z M 157 95 " clip-rule="nonzero"/></clipPath><clipPath id="9fe237b6e6"><path d="M 157.019531 125.953125 L 187.503906 95.46875 L 217.992188 125.953125 L 187.503906 156.441406 Z M 157.019531 125.953125 " clip-rule="nonzero"/></clipPath><clipPath id="7c38705f0a"><path d="M 217 95 L 279 95 L 279 157 L 217 157 Z M 217 95 " clip-rule="nonzero"/></clipPath><clipPath id="ad4ad22894"><path d="M 217.992188 125.953125 L 248.476562 95.46875 L 278.964844 125.953125 L 248.476562 156.441406 Z M 217.992188 125.953125 " clip-rule="nonzero"/></clipPath></defs><g clip-path="url(#e7663296e5)"><g clip-path="url(#a7e29250e5)"><path fill="#004aad" d="M 96.046875 125.953125 L 126.53125 95.46875 L 157.019531 125.953125 L 126.53125 156.441406 Z M 96.046875 125.953125 " fill-opacity="1" fill-rule="nonzero"/></g></g><g clip-path="url(#4bda8477ae)"><g clip-path="url(#eb269e7eae)"><path fill="#155dbc" d="M 126.53125 156.441406 L 157.019531 125.953125 L 187.503906 156.441406 L 157.019531 186.925781 Z M 126.53125 156.441406 " fill-opacity="1" fill-rule="nonzero"/></g></g><g clip-path="url(#d50ab7024a)"><g clip-path="url(#5bbedf24c4)"><path fill="#cb6ce6" d="M 187.503906 156.441406 L 217.992188 125.953125 L 248.476562 156.441406 L 217.992188 186.925781 Z M 187.503906 156.441406 " fill-opacity="1" fill-rule="nonzero"/></g></g><g clip-path="url(#d0638d245b)"><g clip-path="url(#08f25c42d7)"><path fill="#8354c1" d="M 157.011719 156.453125 L 217.988281 156.453125 L 217.988281 186.9375 L 157.011719 186.9375 Z M 157.011719 156.453125 " fill-opacity="1" fill-rule="nonzero"/></g></g><g clip-path="url(#abeac25d0d)"><g clip-path="url(#9fe237b6e6)"><path fill="#8354c1" d="M 157.019531 125.953125 L 187.503906 95.46875 L 217.992188 125.953125 L 187.503906 156.441406 Z M 157.019531 125.953125 " fill-opacity="1" fill-rule="nonzero"/></g></g><g clip-path="url(#7c38705f0a)"><g clip-path="url(#ad4ad22894)"><path fill="#ff66c4" d="M 217.992188 125.953125 L 248.476562 95.46875 L 278.964844 125.953125 L 248.476562 156.441406 Z M 217.992188 125.953125 " fill-opacity="1" fill-rule="nonzero"/></g></g><g fill="#004aad" fill-opacity="1"><g transform="translate(16.782514, 274.196006)"><g><path d="M 39.625 -59.796875 C 41.25 -59.617188 42.550781 -59.019531 43.53125 -58 C 44.519531 -56.988281 45.1875 -55.816406 45.53125 -54.484375 C 45.882812 -53.148438 45.882812 -51.859375 45.53125 -50.609375 C 45.1875 -49.367188 44.519531 -48.375 43.53125 -47.625 C 42.550781 -46.875 41.25 -46.613281 39.625 -46.84375 C 36.90625 -47.1875 34.125 -47.445312 31.28125 -47.625 C 30.875 -41.25 30.484375 -34.90625 30.109375 -28.59375 C 29.734375 -22.28125 29.34375 -15.960938 28.9375 -9.640625 C 28.882812 -7.960938 28.378906 -6.613281 27.421875 -5.59375 C 26.460938 -4.582031 25.332031 -3.914062 24.03125 -3.59375 C 22.726562 -3.28125 21.4375 -3.28125 20.15625 -3.59375 C 18.882812 -3.914062 17.84375 -4.582031 17.03125 -5.59375 C 16.21875 -6.613281 15.84375 -7.960938 15.90625 -9.640625 C 16.3125 -15.960938 16.703125 -22.304688 17.078125 -28.671875 C 17.453125 -35.046875 17.84375 -41.394531 18.25 -47.71875 C 15.644531 -47.65625 13.097656 -47.476562 10.609375 -47.1875 C 8.921875 -47.070312 7.570312 -47.390625 6.5625 -48.140625 C 5.550781 -48.898438 4.882812 -49.914062 4.5625 -51.1875 C 4.238281 -52.457031 4.25 -53.757812 4.59375 -55.09375 C 4.945312 -56.425781 5.613281 -57.570312 6.59375 -58.53125 C 7.582031 -59.488281 8.921875 -60.050781 10.609375 -60.21875 C 20.273438 -61.207031 29.945312 -61.066406 39.625 -59.796875 Z M 39.625 -59.796875 "/></g></g></g><g fill="#155dbc" fill-opacity="1"><g transform="translate(63.275574, 274.196006)"><g><path d="M 49.453125 -8.25 C 50.429688 -6.914062 50.832031 -5.613281 50.65625 -4.34375 C 50.488281 -3.070312 49.941406 -1.984375 49.015625 -1.078125 C 48.085938 -0.179688 46.972656 0.453125 45.671875 0.828125 C 44.367188 1.203125 43.035156 1.210938 41.671875 0.859375 C 40.304688 0.515625 39.132812 -0.320312 38.15625 -1.65625 C 35.539062 -5.25 32.625 -8.566406 29.40625 -11.609375 C 26.195312 -14.648438 22.738281 -17.382812 19.03125 -19.8125 C 18.738281 -16.332031 18.460938 -12.882812 18.203125 -9.46875 C 17.941406 -6.050781 17.664062 -2.601562 17.375 0.875 C 17.257812 2.550781 16.722656 3.878906 15.765625 4.859375 C 14.816406 5.847656 13.675781 6.515625 12.34375 6.859375 C 11.007812 7.210938 9.71875 7.210938 8.46875 6.859375 C 7.226562 6.515625 6.203125 5.847656 5.390625 4.859375 C 4.578125 3.878906 4.226562 2.550781 4.34375 0.875 C 4.863281 -5.5 5.269531 -11.957031 5.5625 -18.5 C 5.851562 -25.050781 6.632812 -31.457031 7.90625 -37.71875 C 8.539062 -40.90625 9.726562 -44.003906 11.46875 -47.015625 C 13.207031 -50.023438 15.421875 -52.53125 18.109375 -54.53125 C 20.804688 -56.53125 23.953125 -57.585938 27.546875 -57.703125 C 30.035156 -57.816406 32.394531 -57.351562 34.625 -56.3125 C 36.863281 -55.269531 38.765625 -53.835938 40.328125 -52.015625 C 41.890625 -50.191406 42.945312 -48.101562 43.5 -45.75 C 44.050781 -43.40625 43.921875 -40.988281 43.109375 -38.5 C 42.296875 -36.0625 40.972656 -33.726562 39.140625 -31.5 C 37.316406 -29.269531 35.21875 -27.34375 32.84375 -25.71875 C 39.050781 -20.738281 44.585938 -14.914062 49.453125 -8.25 Z M 30.859375 -43.109375 C 30.617188 -44.265625 30.164062 -44.914062 29.5 -45.0625 C 28.832031 -45.207031 28.078125 -45.019531 27.234375 -44.5 C 26.398438 -43.976562 25.578125 -43.3125 24.765625 -42.5 C 23.953125 -41.6875 23.253906 -40.890625 22.671875 -40.109375 C 22.097656 -39.328125 21.722656 -38.757812 21.546875 -38.40625 C 21.085938 -37.132812 20.6875 -35.6875 20.34375 -34.0625 C 21.5 -34.238281 22.539062 -34.601562 23.46875 -35.15625 C 24.394531 -35.707031 25.289062 -36.390625 26.15625 -37.203125 C 26.507812 -37.546875 27.085938 -38.09375 27.890625 -38.84375 C 28.703125 -39.601562 29.425781 -40.382812 30.0625 -41.1875 C 30.707031 -42 30.972656 -42.640625 30.859375 -43.109375 Z M 30.859375 -43.109375 "/></g></g></g><g fill="#8354c1" fill-opacity="1"><g transform="translate(114.640101, 274.196006)"><g><path d="M 45.015625 -38.15625 C 45.191406 -32.363281 45.335938 -26.566406 45.453125 -20.765625 C 45.566406 -14.972656 45.710938 -9.179688 45.890625 -3.390625 C 45.941406 -1.710938 45.53125 -0.367188 44.65625 0.640625 C 43.789062 1.660156 42.722656 2.328125 41.453125 2.640625 C 40.179688 2.960938 38.890625 2.945312 37.578125 2.59375 C 36.273438 2.25 35.175781 1.582031 34.28125 0.59375 C 33.382812 -0.382812 32.90625 -1.710938 32.84375 -3.390625 C 32.789062 -5.128906 32.75 -6.863281 32.71875 -8.59375 C 32.6875 -10.332031 32.644531 -12.070312 32.59375 -13.8125 L 19.546875 -14.25 C 19.085938 -12.101562 18.65625 -9.929688 18.25 -7.734375 C 17.84375 -5.535156 17.4375 -3.332031 17.03125 -1.125 C 16.738281 0.488281 16.085938 1.671875 15.078125 2.421875 C 14.066406 3.179688 12.894531 3.5625 11.5625 3.5625 C 10.226562 3.5625 8.96875 3.210938 7.78125 2.515625 C 6.59375 1.828125 5.664062 0.875 5 -0.34375 C 4.332031 -1.5625 4.144531 -2.984375 4.4375 -4.609375 C 5.476562 -10.285156 6.648438 -15.90625 7.953125 -21.46875 C 9.253906 -27.03125 11.09375 -32.445312 13.46875 -37.71875 C 14.625 -40.320312 16.097656 -43.128906 17.890625 -46.140625 C 19.691406 -49.160156 21.738281 -51.929688 24.03125 -54.453125 C 26.320312 -56.972656 28.859375 -58.835938 31.640625 -60.046875 C 34.242188 -61.148438 36.351562 -61.351562 37.96875 -60.65625 C 39.59375 -59.96875 40.867188 -58.707031 41.796875 -56.875 C 42.722656 -55.050781 43.40625 -52.976562 43.84375 -50.65625 C 44.28125 -48.34375 44.570312 -46.054688 44.71875 -43.796875 C 44.863281 -41.535156 44.960938 -39.65625 45.015625 -38.15625 Z M 23.640625 -28.59375 C 23.578125 -28.363281 23.503906 -28.128906 23.421875 -27.890625 C 23.335938 -27.660156 23.234375 -27.429688 23.109375 -27.203125 C 24.679688 -27.140625 26.21875 -27.078125 27.71875 -27.015625 C 29.226562 -26.960938 30.738281 -26.910156 32.25 -26.859375 C 32.1875 -28.710938 32.140625 -30.578125 32.109375 -32.453125 C 32.078125 -34.335938 32.035156 -36.238281 31.984375 -38.15625 C 31.921875 -38.90625 31.890625 -39.695312 31.890625 -40.53125 C 31.890625 -41.375 31.890625 -42.234375 31.890625 -43.109375 C 30.910156 -41.953125 30.070312 -40.820312 29.375 -39.71875 C 28.21875 -37.976562 27.160156 -36.179688 26.203125 -34.328125 C 25.242188 -32.472656 24.390625 -30.5625 23.640625 -28.59375 Z M 23.640625 -28.59375 "/></g></g></g><g fill="#8354c1" fill-opacity="1"><g transform="translate(161.208175, 274.196006)"><g><path d="M 38.0625 -46.140625 C 38.644531 -47.710938 39.539062 -48.84375 40.75 -49.53125 C 41.96875 -50.226562 43.257812 -50.5625 44.625 -50.53125 C 45.988281 -50.507812 47.234375 -50.175781 48.359375 -49.53125 C 49.492188 -48.894531 50.304688 -47.984375 50.796875 -46.796875 C 51.285156 -45.609375 51.242188 -44.234375 50.671875 -42.671875 C 45.273438 -28.359375 39.25 -14.453125 32.59375 -0.953125 C 31.832031 0.546875 30.710938 1.5 29.234375 1.90625 C 27.765625 2.3125 26.289062 2.253906 24.8125 1.734375 C 23.332031 1.210938 22.1875 0.316406 21.375 -0.953125 C 18.476562 -5.410156 16.085938 -10.1875 14.203125 -15.28125 C 12.328125 -20.382812 10.664062 -25.570312 9.21875 -30.84375 C 7.769531 -36.125 6.257812 -41.253906 4.6875 -46.234375 C 4.164062 -47.859375 4.179688 -49.265625 4.734375 -50.453125 C 5.285156 -51.640625 6.140625 -52.566406 7.296875 -53.234375 C 8.453125 -53.898438 9.695312 -54.242188 11.03125 -54.265625 C 12.363281 -54.296875 13.609375 -53.945312 14.765625 -53.21875 C 15.929688 -52.5 16.742188 -51.328125 17.203125 -49.703125 C 18.765625 -44.785156 20.253906 -39.6875 21.671875 -34.40625 C 23.097656 -29.132812 24.796875 -24.039062 26.765625 -19.125 C 28.796875 -23.582031 30.75 -28.054688 32.625 -32.546875 C 34.507812 -37.035156 36.320312 -41.566406 38.0625 -46.140625 Z M 38.0625 -46.140625 "/></g></g></g><g fill="#b974f4" fill-opacity="1"><g transform="translate(213.006249, 274.196006)"><g><path d="M 36.234375 -18.421875 C 37.921875 -18.367188 39.269531 -17.890625 40.28125 -16.984375 C 41.289062 -16.085938 41.957031 -14.988281 42.28125 -13.6875 C 42.601562 -12.382812 42.601562 -11.082031 42.28125 -9.78125 C 41.957031 -8.476562 41.289062 -7.40625 40.28125 -6.5625 C 39.269531 -5.71875 37.921875 -5.351562 36.234375 -5.46875 C 32.296875 -5.59375 28.359375 -5.566406 24.421875 -5.390625 C 20.484375 -5.210938 16.539062 -4.804688 12.59375 -4.171875 C 11.382812 -3.941406 10.113281 -4.039062 8.78125 -4.46875 C 7.445312 -4.90625 6.328125 -5.613281 5.421875 -6.59375 C 4.523438 -7.582031 4.195312 -8.859375 4.4375 -10.421875 C 5.414062 -18.484375 6.5 -26.507812 7.6875 -34.5 C 8.875 -42.5 10.164062 -50.46875 11.5625 -58.40625 C 11.726562 -59.382812 12.070312 -60.253906 12.59375 -61.015625 C 13.0625 -61.816406 13.726562 -62.476562 14.59375 -63 C 15.46875 -63.53125 16.539062 -63.820312 17.8125 -63.875 C 24.070312 -64.101562 30.332031 -63.988281 36.59375 -63.53125 C 38.269531 -63.414062 39.613281 -62.878906 40.625 -61.921875 C 41.644531 -60.960938 42.3125 -59.832031 42.625 -58.53125 C 42.945312 -57.226562 42.945312 -55.9375 42.625 -54.65625 C 42.3125 -53.382812 41.644531 -52.34375 40.625 -51.53125 C 39.613281 -50.71875 38.269531 -50.375 36.59375 -50.5 C 32.300781 -50.78125 27.925781 -50.921875 23.46875 -50.921875 C 23.175781 -49.242188 22.882812 -47.5625 22.59375 -45.875 C 22.300781 -44.195312 22.039062 -42.519531 21.8125 -40.84375 C 24.1875 -40.789062 26.472656 -40.675781 28.671875 -40.5 C 30.410156 -40.269531 31.929688 -39.601562 33.234375 -38.5 C 34.546875 -37.394531 35.203125 -35.890625 35.203125 -33.984375 C 35.203125 -32.878906 34.894531 -31.804688 34.28125 -30.765625 C 33.675781 -29.722656 32.878906 -28.878906 31.890625 -28.234375 C 30.910156 -27.597656 29.835938 -27.34375 28.671875 -27.46875 C 25.722656 -27.75 22.769531 -27.863281 19.8125 -27.8125 C 19.582031 -26.1875 19.347656 -24.546875 19.109375 -22.890625 C 18.878906 -21.242188 18.648438 -19.582031 18.421875 -17.90625 C 21.378906 -18.195312 24.332031 -18.398438 27.28125 -18.515625 C 30.238281 -18.628906 33.222656 -18.597656 36.234375 -18.421875 Z M 36.234375 -18.421875 "/></g></g></g><g fill="#cb6ce6" fill-opacity="1"><g transform="translate(256.555017, 274.196006)"><g><path d="M 38.328125 -21.640625 C 40.003906 -21.753906 41.332031 -21.421875 42.3125 -20.640625 C 43.300781 -19.859375 43.96875 -18.828125 44.3125 -17.546875 C 44.664062 -16.273438 44.664062 -14.972656 44.3125 -13.640625 C 43.96875 -12.304688 43.289062 -11.160156 42.28125 -10.203125 C 41.269531 -9.253906 39.953125 -8.722656 38.328125 -8.609375 C 33.921875 -8.316406 29.585938 -7.765625 25.328125 -6.953125 C 21.078125 -6.140625 16.832031 -5.125 12.59375 -3.90625 C 11.382812 -3.5625 10.113281 -3.632812 8.78125 -4.125 C 7.445312 -4.613281 6.34375 -5.394531 5.46875 -6.46875 C 4.601562 -7.539062 4.226562 -8.800781 4.34375 -10.25 C 5.039062 -17.03125 5.722656 -23.8125 6.390625 -30.59375 C 7.054688 -37.375 7.707031 -44.148438 8.34375 -50.921875 C 8.519531 -52.546875 9.097656 -53.863281 10.078125 -54.875 C 11.066406 -55.894531 12.226562 -56.5625 13.5625 -56.875 C 14.894531 -57.195312 16.179688 -57.195312 17.421875 -56.875 C 18.671875 -56.5625 19.6875 -55.910156 20.46875 -54.921875 C 21.25 -53.941406 21.550781 -52.609375 21.375 -50.921875 C 20.851562 -45.535156 20.332031 -40.160156 19.8125 -34.796875 C 19.289062 -29.441406 18.769531 -24.097656 18.25 -18.765625 C 24.800781 -20.160156 31.492188 -21.117188 38.328125 -21.640625 Z M 38.328125 -21.640625 "/></g></g></g><g fill="#ff66c4" fill-opacity="1"><g transform="translate(301.843594, 274.196006)"><g><path d="M 48.3125 -55.359375 C 49.707031 -53.097656 50.664062 -50.5625 51.1875 -47.75 C 51.707031 -44.945312 51.9375 -42.109375 51.875 -39.234375 C 51.820312 -36.367188 51.59375 -33.691406 51.1875 -31.203125 C 50.601562 -27.378906 49.414062 -23.753906 47.625 -20.328125 C 45.832031 -16.910156 43.425781 -13.957031 40.40625 -11.46875 C 37.507812 -9.09375 34.148438 -7.351562 30.328125 -6.25 C 26.503906 -5.15625 22.769531 -5.1875 19.125 -6.34375 C 16.6875 -7.09375 14.566406 -8.335938 12.765625 -10.078125 C 10.972656 -11.816406 9.46875 -13.800781 8.25 -16.03125 C 7.039062 -18.257812 6.144531 -20.535156 5.5625 -22.859375 C 4.863281 -25.410156 4.457031 -28.347656 4.34375 -31.671875 C 4.226562 -35.003906 4.457031 -38.410156 5.03125 -41.890625 C 5.613281 -45.367188 6.570312 -48.613281 7.90625 -51.625 C 9.238281 -54.632812 11.035156 -57.125 13.296875 -59.09375 C 15.609375 -61.46875 18.382812 -63.144531 21.625 -64.125 C 24.875 -65.113281 28.207031 -65.445312 31.625 -65.125 C 35.050781 -64.8125 38.238281 -63.828125 41.1875 -62.171875 C 44.144531 -60.523438 46.519531 -58.253906 48.3125 -55.359375 Z M 32.5 -21.546875 C 34.46875 -23.398438 35.929688 -25.554688 36.890625 -28.015625 C 37.847656 -30.484375 38.441406 -33.0625 38.671875 -35.75 C 38.898438 -38.445312 38.84375 -41.070312 38.5 -43.625 C 38.15625 -46.175781 37.15625 -48.257812 35.5 -49.875 C 33.851562 -51.5 31.664062 -52.285156 28.9375 -52.234375 C 27.4375 -52.234375 25.972656 -51.851562 24.546875 -51.09375 C 23.128906 -50.34375 21.957031 -49.359375 21.03125 -48.140625 C 19.988281 -46.691406 19.234375 -44.953125 18.765625 -42.921875 C 18.304688 -40.898438 17.960938 -39.019531 17.734375 -37.28125 C 17.210938 -33.394531 17.414062 -29.570312 18.34375 -25.8125 C 18.625 -24.707031 19.007812 -23.601562 19.5 -22.5 C 20 -21.40625 20.710938 -20.507812 21.640625 -19.8125 C 23.148438 -18.707031 24.875 -18.316406 26.8125 -18.640625 C 28.75 -18.960938 30.441406 -19.726562 31.890625 -20.9375 C 32.066406 -21.113281 32.269531 -21.316406 32.5 -21.546875 Z M 32.5 -21.546875 "/></g></g></g></svg>